<svg xmlns="http://www.w3.org/2000/svg" width="12" height="17" viewBox="0 0 12 17"><defs><style>.cls-1{fill:#fff;fill-rule:evenodd}</style></defs><path id="Social" class="cls-1" d="M580 489.238a2.74 2.74 0 0 1-.792 1.935 2.684 2.684 0 0 1-3.824 0 2.761 2.761 0 0 1 0-3.871 2.684 2.684 0 0 1 3.824 0 2.741 2.741 0 0 1 .792 1.936zm-4.422 0a1.739 1.739 0 0 0 .5 1.229 1.706 1.706 0 0 0 2.429 0 1.754 1.754 0 0 0 0-2.459 1.706 1.706 0 0 0-2.429 0 1.739 1.739 0 0 0-.503 1.23zm4.422-11.5a2.74 2.74 0 0 1-.792 1.935 2.684 2.684 0 0 1-3.824 0 2.761 2.761 0 0 1 0-3.871 2.684 2.684 0 0 1 3.824 0 2.741 2.741 0 0 1 .792 1.934zm-4.422 0a1.739 1.739 0 0 0 .5 1.229 1.706 1.706 0 0 0 2.429 0 1.754 1.754 0 0 0 0-2.459 1.706 1.706 0 0 0-2.429 0 1.741 1.741 0 0 0-.503 1.228zm-2.164 5.754a2.737 2.737 0 0 1-.792 1.936 2.682 2.682 0 0 1-3.824 0 2.761 2.761 0 0 1 0-3.871 2.68 2.68 0 0 1 3.824 0 2.734 2.734 0 0 1 .789 1.933zm-4.421 0a1.733 1.733 0 0 0 .5 1.229 1.7 1.7 0 0 0 2.429 0 1.753 1.753 0 0 0 0-2.458 1.7 1.7 0 0 0-2.429 0 1.735 1.735 0 0 0-.503 1.227zm7.233 4.166a.506.506 0 0 1-.1.3.489.489 0 0 1-.689.105l-3.459-2.583a.5.5 0 0 1-.1-.7.488.488 0 0 1 .689-.105l3.459 2.582a.5.5 0 0 1 .197.399zm0-8.339a.5.5 0 0 1-.2.4l-3.459 2.59a.489.489 0 0 1-.69-.1.5.5 0 0 1 .1-.7l3.459-2.591a.49.49 0 0 1 .69.105.5.5 0 0 1 .097.294z" transform="translate(-568 -475)"/></svg>