<svg xmlns="http://www.w3.org/2000/svg" width="12" height="17" viewBox="0 0 12 17">
  <metadata><?xpacket begin="﻿" id="W5M0MpCehiHzreSzNTczkc9d"?>
<x:xmpmeta xmlns:x="adobe:ns:meta/" x:xmptk="Adobe XMP Core 5.6-c142 79.160924, 2017/07/13-01:06:39        ">
   <rdf:RDF xmlns:rdf="http://www.w3.org/1999/02/22-rdf-syntax-ns#">
      <rdf:Description rdf:about=""/>
   </rdf:RDF>
</x:xmpmeta>
                                                                                                    
                                                                                                    
                                                                                                    
                                                                                                    
                                                                                                    
                                                                                                    
                                                                                                    
                                                                                                    
                                                                                                    
                                                                                                    
                                                                                                    
                                                                                                    
                                                                                                    
                                                                                                    
                                                                                                    
                                                                                                    
                                                                                                    
                                                                                                    
                                                                                                    
                                                                                                    
                           
<?xpacket end="w"?></metadata>
<defs>
    <style>
      .cls-1 {
        fill: #fff;
        fill-rule: evenodd;
      }
    </style>
  </defs>
  <path id="Social" class="cls-1" d="M580,489.238a2.74,2.74,0,0,1-.792,1.935,2.684,2.684,0,0,1-3.824,0,2.761,2.761,0,0,1,0-3.871,2.684,2.684,0,0,1,3.824,0A2.741,2.741,0,0,1,580,489.238Zm-4.422,0a1.739,1.739,0,0,0,.5,1.229,1.706,1.706,0,0,0,2.429,0,1.754,1.754,0,0,0,0-2.459,1.706,1.706,0,0,0-2.429,0A1.739,1.739,0,0,0,575.575,489.238Zm4.422-11.5a2.74,2.74,0,0,1-.792,1.935,2.684,2.684,0,0,1-3.824,0,2.761,2.761,0,0,1,0-3.871,2.684,2.684,0,0,1,3.824,0A2.741,2.741,0,0,1,580,477.736Zm-4.422,0a1.739,1.739,0,0,0,.5,1.229,1.706,1.706,0,0,0,2.429,0,1.754,1.754,0,0,0,0-2.459,1.706,1.706,0,0,0-2.429,0A1.741,1.741,0,0,0,575.575,477.736Zm-2.164,5.754a2.737,2.737,0,0,1-.792,1.936,2.682,2.682,0,0,1-3.824,0,2.761,2.761,0,0,1,0-3.871,2.68,2.68,0,0,1,3.824,0A2.734,2.734,0,0,1,573.411,483.49Zm-4.421,0a1.733,1.733,0,0,0,.5,1.229,1.7,1.7,0,0,0,2.429,0,1.753,1.753,0,0,0,0-2.458,1.7,1.7,0,0,0-2.429,0A1.735,1.735,0,0,0,568.99,483.49Zm7.233,4.166a0.506,0.506,0,0,1-.1.3,0.489,0.489,0,0,1-.689.105l-3.459-2.583a0.5,0.5,0,0,1-.1-0.7,0.488,0.488,0,0,1,.689-0.105l3.459,2.582A0.5,0.5,0,0,1,576.223,487.656Zm0-8.339a0.5,0.5,0,0,1-.2.4l-3.459,2.59a0.489,0.489,0,0,1-.69-0.1,0.5,0.5,0,0,1,.1-0.7l3.459-2.591a0.49,0.49,0,0,1,.69.105A0.5,0.5,0,0,1,576.223,479.317Z" transform="translate(-568 -475)"/>
</svg>
