<svg xmlns="http://www.w3.org/2000/svg" width="30.656" height="28.062" viewBox="0 0 30.656 28.062">
  <metadata><?xpacket begin="﻿" id="W5M0MpCehiHzreSzNTczkc9d"?>
<x:xmpmeta xmlns:x="adobe:ns:meta/" x:xmptk="Adobe XMP Core 5.6-c142 79.160924, 2017/07/13-01:06:39        ">
   <rdf:RDF xmlns:rdf="http://www.w3.org/1999/02/22-rdf-syntax-ns#">
      <rdf:Description rdf:about=""/>
   </rdf:RDF>
</x:xmpmeta>
                                                                                                    
                                                                                                    
                                                                                                    
                                                                                                    
                                                                                                    
                                                                                                    
                                                                                                    
                                                                                                    
                                                                                                    
                                                                                                    
                                                                                                    
                                                                                                    
                                                                                                    
                                                                                                    
                                                                                                    
                                                                                                    
                                                                                                    
                                                                                                    
                                                                                                    
                                                                                                    
                           
<?xpacket end="w"?></metadata>
<defs>
    <style>
      .cls-1 {
        fill: #ffc001;
        fill-rule: evenodd;
      }
    </style>
  </defs>
  <path id="ikona_databaze" data-name="ikona databaze" class="cls-1" d="M113.335,311.529a3.525,3.525,0,1,1,3.53-3.525A3.531,3.531,0,0,1,113.335,311.529Zm0-5.249A1.724,1.724,0,1,0,115.06,308,1.727,1.727,0,0,0,113.335,306.28Zm26.24,2.625H121.087a0.9,0.9,0,1,1,0-1.8h18.488A0.9,0.9,0,1,1,139.575,308.9Zm-26.24,13.12a3.525,3.525,0,1,1,3.53-3.525A3.532,3.532,0,0,1,113.335,322.025Zm0-5.249a1.724,1.724,0,1,0,1.725,1.724A1.727,1.727,0,0,0,113.335,316.776Zm26.24,2.624H121.087a0.9,0.9,0,1,1,0-1.8h18.488A0.9,0.9,0,1,1,139.575,319.4Zm-26.24,13.12a3.525,3.525,0,1,1,3.53-3.525A3.531,3.531,0,0,1,113.335,332.52Zm0-5.248A1.723,1.723,0,1,0,115.06,329,1.726,1.726,0,0,0,113.335,327.272Zm26.24,2.624H121.087a0.9,0.9,0,1,1,0-1.8h18.488A0.9,0.9,0,1,1,139.575,329.9Z" transform="translate(-109.813 -304.469)"/>
</svg>
