<svg xmlns="http://www.w3.org/2000/svg" width="30.656" height="28.062" viewBox="0 0 30.656 28.062"><defs><style>.cls-1{fill:#ffc001;fill-rule:evenodd}</style></defs><path id="ikona_databaze" data-name="ikona databaze" class="cls-1" d="M113.335 311.529a3.525 3.525 0 1 1 3.53-3.525 3.531 3.531 0 0 1-3.53 3.525zm0-5.249a1.724 1.724 0 1 0 1.725 1.72 1.727 1.727 0 0 0-1.725-1.72zm26.24 2.625h-18.488a.9.9 0 1 1 0-1.8h18.488a.9.9 0 1 1 0 1.795zm-26.24 13.12a3.525 3.525 0 1 1 3.53-3.525 3.532 3.532 0 0 1-3.53 3.525zm0-5.249a1.724 1.724 0 1 0 1.725 1.724 1.727 1.727 0 0 0-1.725-1.724zm26.24 2.624h-18.488a.9.9 0 1 1 0-1.8h18.488a.9.9 0 1 1 0 1.8zm-26.24 13.12a3.525 3.525 0 1 1 3.53-3.525 3.531 3.531 0 0 1-3.53 3.525zm0-5.248A1.723 1.723 0 1 0 115.06 329a1.726 1.726 0 0 0-1.725-1.728zm26.24 2.624h-18.488a.9.9 0 1 1 0-1.8h18.488a.9.9 0 1 1 0 1.804z" transform="translate(-109.813 -304.469)"/></svg>