<svg xmlns="http://www.w3.org/2000/svg" width="30.656" height="28.782" viewBox="0 0 30.656 28.782"><defs><style>.cls-1{fill:#ffc001;fill-rule:evenodd}</style></defs><path id="ikona_monitoring" data-name="ikona monitoring" class="cls-1" d="M142.451 259.332h-28.869a.9.9 0 1 1 0-1.8h28.869a.9.9 0 1 1 0 1.8zm0 21.445h-28.869a.9.9 0 1 1 0-1.8h28.869a.9.9 0 1 1 0 1.8zm-26.091-.6a.9.9 0 0 1-.9-.9v-20.243a.9.9 0 0 1 1.8 0v20.239a.9.9 0 0 1-.9.901zm23.313 0a.9.9 0 0 1-.9-.9v-20.243a.9.9 0 0 1 1.8 0v20.239a.9.9 0 0 1-.9.901zm-11.741 4.943a.9.9 0 0 1-.9-.9v-1.02a.9.9 0 0 1 1.8 0v1.021a.9.9 0 0 1-.9.896zm2.548 1.195h-5.265a.9.9 0 1 1 0-1.8h5.265a.9.9 0 1 1 0 1.797zm-10.342-13.541a.9.9 0 0 1-.493-1.656l6.138-3.991a.9.9 0 0 1 1.338.438l1.106 2.944 5.912-3.812a.9.9 0 1 1 .979 1.514l-6.853 4.419a.9.9 0 0 1-1.335-.441l-1.1-2.94-5.2 3.379a.9.9 0 0 1-.492.143z" transform="translate(-112.688 -257.531)"/></svg>