<svg xmlns="http://www.w3.org/2000/svg" width="21.62" height="21.22" viewBox="0 0 21.62 21.22">
  <metadata><?xpacket begin="﻿" id="W5M0MpCehiHzreSzNTczkc9d"?>
<x:xmpmeta xmlns:x="adobe:ns:meta/" x:xmptk="Adobe XMP Core 5.6-c142 79.160924, 2017/07/13-01:06:39        ">
   <rdf:RDF xmlns:rdf="http://www.w3.org/1999/02/22-rdf-syntax-ns#">
      <rdf:Description rdf:about=""/>
   </rdf:RDF>
</x:xmpmeta>
                                                                                                    
                                                                                                    
                                                                                                    
                                                                                                    
                                                                                                    
                                                                                                    
                                                                                                    
                                                                                                    
                                                                                                    
                                                                                                    
                                                                                                    
                                                                                                    
                                                                                                    
                                                                                                    
                                                                                                    
                                                                                                    
                                                                                                    
                                                                                                    
                                                                                                    
                                                                                                    
                           
<?xpacket end="w"?></metadata>
<defs>
    <style>
      .cls-1 {
        fill: #fff;
        fill-rule: evenodd;
      }
    </style>
  </defs>
  <path id="Výplň_barvou_1" data-name="Výplň barvou 1" class="cls-1" d="M1010.86,1684a10.348,10.348,0,0,1,5.38,1.25c0.14,0.08.28,0.11,0.42,0.19,0.39,0.23.78,0.49,1.15,0.76a10.7,10.7,0,0,1,3.21,3.92c0.12,0.27.18,0.51,0.3,0.78a10.478,10.478,0,0,1-7,13.83c-0.57.19-1.18,0.23-1.79,0.37-0.34.02-.67,0.05-1,0.07a5.3,5.3,0,0,1-1.39-.07c-0.41-.09-0.77-0.04-1.15-0.15a14.034,14.034,0,0,1-2.47-.85c-0.33-.17-0.64-0.28-0.94-0.46a10.837,10.837,0,0,1-4.29-4.81,13.319,13.319,0,0,1-.47-1.39,8.892,8.892,0,0,1-.35-3.9c0.02-.2.03-0.39,0.05-0.59a15.975,15.975,0,0,1,.57-2.12,10.941,10.941,0,0,1,6.28-6.14,15.686,15.686,0,0,1,2.34-.59C1010.09,1684.07,1010.48,1684.03,1010.86,1684Zm-1.12,9.2h-2.3v2.17h2.3v6.49h2.56v-6.49h2.67v-2.17h-2.67c-0.01-.61-0.12-2.03.3-2.17a1.538,1.538,0,0,1,.7-0.08c0.54,0,1.14,0,1.64-.02,0.01-.73.03-1.53,0.03-2.29a12.083,12.083,0,0,0-2.09.02c-0.28.06-.54-0.02-0.78,0.05a3.237,3.237,0,0,0-2.31,2.54A8.932,8.932,0,0,0,1009.74,1693.2Z" transform="translate(-1000.38 -1684)"/>
</svg>
