<svg xmlns="http://www.w3.org/2000/svg" width="21.62" height="21.22" viewBox="0 0 21.62 21.22"><defs><style>.cls-1{fill:#fff;fill-rule:evenodd}</style></defs><path id="Výplň_barvou_1" data-name="Výplň barvou 1" class="cls-1" d="M1010.86 1684a10.348 10.348 0 0 1 5.38 1.25c.14.08.28.11.42.19.39.23.78.49 1.15.76a10.7 10.7 0 0 1 3.21 3.92c.12.27.18.51.3.78a10.478 10.478 0 0 1-7 13.83c-.57.19-1.18.23-1.79.37-.34.02-.67.05-1 .07a5.3 5.3 0 0 1-1.39-.07c-.41-.09-.77-.04-1.15-.15a14.034 14.034 0 0 1-2.47-.85c-.33-.17-.64-.28-.94-.46a10.837 10.837 0 0 1-4.29-4.81 13.319 13.319 0 0 1-.47-1.39 8.892 8.892 0 0 1-.35-3.9c.02-.2.03-.39.05-.59a15.975 15.975 0 0 1 .57-2.12 10.941 10.941 0 0 1 6.28-6.14 15.686 15.686 0 0 1 2.34-.59c.38-.03.77-.07 1.15-.1zm-1.12 9.2h-2.3v2.17h2.3v6.49h2.56v-6.49h2.67v-2.17h-2.67c-.01-.61-.12-2.03.3-2.17a1.538 1.538 0 0 1 .7-.08c.54 0 1.14 0 1.64-.02.01-.73.03-1.53.03-2.29a12.083 12.083 0 0 0-2.09.02c-.28.06-.54-.02-.78.05a3.237 3.237 0 0 0-2.31 2.54 8.932 8.932 0 0 0-.05 1.95z" transform="translate(-1000.38 -1684)"/></svg>