<svg xmlns="http://www.w3.org/2000/svg" width="22.188" height="25" viewBox="0 0 22.188 25">
  <metadata><?xpacket begin="﻿" id="W5M0MpCehiHzreSzNTczkc9d"?>
<x:xmpmeta xmlns:x="adobe:ns:meta/" x:xmptk="Adobe XMP Core 5.6-c142 79.160924, 2017/07/13-01:06:39        ">
   <rdf:RDF xmlns:rdf="http://www.w3.org/1999/02/22-rdf-syntax-ns#">
      <rdf:Description rdf:about=""/>
   </rdf:RDF>
</x:xmpmeta>
                                                                                                    
                                                                                                    
                                                                                                    
                                                                                                    
                                                                                                    
                                                                                                    
                                                                                                    
                                                                                                    
                                                                                                    
                                                                                                    
                                                                                                    
                                                                                                    
                                                                                                    
                                                                                                    
                                                                                                    
                                                                                                    
                                                                                                    
                                                                                                    
                                                                                                    
                                                                                                    
                           
<?xpacket end="w"?></metadata>
<defs>
    <style>
      .cls-1 {
        fill: #fff;
        fill-rule: evenodd;
      }
    </style>
  </defs>
  <path id="Výplň_barvou_1" data-name="Výplň barvou 1" class="cls-1" d="M982.065,1705.43a10.947,10.947,0,0,1-10.717-7.77,8.134,8.134,0,0,1-.214-3.78c0.188-.81.081-1.38,0.321-2.1a11,11,0,0,1,6.966-7.04,9.772,9.772,0,0,1,5.037-.63c4.232,0.95,7.238,2.99,8.787,6.51,3.026,6.89-2.034,13.05-6,15.86-1.222.87-2.555,2.1-4.179,2.52v-3.57Zm-5.466-13.55v4.73h2.572v2.62h0.215a4.2,4.2,0,0,0,1.607-1.15c0.74-1.23.341-4.3,0.321-6.09h-0.107v-0.11H976.6Zm8.895,4.73v2.62h0.214a4.058,4.058,0,0,0,1.5-1.05c0.8-1.27.447-4.26,0.428-6.19-1.2-.39-3.3-0.11-4.715-0.11-0.4,1.18-.116,3.24-0.107,4.62h0.107v0.11h2.572Z" transform="translate(-971 -1684)"/>
</svg>
