<svg xmlns="http://www.w3.org/2000/svg" width="106" height="97" viewBox="0 0 106 97"><defs><style>.cls-1{fill:#ffc001;fill-rule:evenodd}</style></defs><path id="ikona_databaze" data-name="ikona databaze" class="cls-1" d="M333.2 319.379a12.2 12.2 0 1 1 12.2-12.2 12.211 12.211 0 0 1-12.2 12.2zm0-18.158a5.963 5.963 0 1 0 5.963 5.962 5.97 5.97 0 0 0-5.963-5.962zm90.683 9.08h-63.894a3.117 3.117 0 1 1 0-6.234h63.893a3.117 3.117 0 1 1 0 6.233zM333.2 355.7a12.2 12.2 0 1 1 12.2-12.2 12.212 12.212 0 0 1-12.2 12.2zm0-18.16a5.963 5.963 0 1 0 5.963 5.963 5.971 5.971 0 0 0-5.963-5.968zm90.683 9.08h-63.894a3.117 3.117 0 1 1 0-6.234h63.893a3.117 3.117 0 1 1 0 6.229zM333.2 392.009a12.2 12.2 0 1 1 12.2-12.2 12.212 12.212 0 0 1-12.2 12.2zm0-18.158a5.962 5.962 0 1 0 5.963 5.962 5.97 5.97 0 0 0-5.963-5.962zm90.683 9.078h-63.894a3.117 3.117 0 1 1 0-6.233h63.893a3.117 3.117 0 1 1 0 6.233z" transform="translate(-321 -295)"/></svg>