<svg xmlns="http://www.w3.org/2000/svg" width="25" height="23" viewBox="0 0 25 23"><defs><style>.cls-1{fill:#ea0000;fill-rule:evenodd}</style></defs><path id="Notification" class="cls-1" d="M655.328 692.015h-13.656a.678.678 0 0 1-.678-.676v-8.793a7.506 7.506 0 0 1 15.012 0v8.793a.678.678 0 0 1-.678.676zm-12.979-1.353h12.3v-8.116a6.151 6.151 0 0 0-12.3 0v8.116zM648.5 695a3.669 3.669 0 0 1-3.667-3.661.678.678 0 0 1 1.355 0 2.312 2.312 0 0 0 4.624 0 .678.678 0 0 1 1.355 0A3.669 3.669 0 0 1 648.5 695zm-4.242-10.777a.541.541 0 0 1-.542-.541v-1.624a3.915 3.915 0 0 1 3.914-3.908.541.541 0 1 1 0 1.082 2.832 2.832 0 0 0-2.83 2.826v1.624a.542.542 0 0 1-.542.541zm2.672-7.655a.677.677 0 0 1-.677-.677v-1.648a2.247 2.247 0 0 1 4.494 0v1.487a.678.678 0 0 1-1.355 0v-1.487a.892.892 0 0 0-1.784 0v1.648a.677.677 0 0 1-.678.677zM658 682h1v7h-1v-7zm2 2h1v3h-1v-3zm-22-2h1v7h-1v-7zm-2 2h1v3h-1v-3z" transform="translate(-636 -672)"/></svg>