<svg xmlns="http://www.w3.org/2000/svg" width="24" height="23.812" viewBox="0 0 24 23.812">
  <path id="File" class="cls" d="M273.859,454.911H255.1a0.706,0.706,0,0,1-.706-0.706v-18.76a0.705,0.705,0,0,1,.706-0.7h18.759a0.706,0.706,0,0,1,.706.7v18.76A0.707,0.707,0,0,1,273.859,454.911ZM255.805,453.5h17.348V436.151H255.805V453.5Zm8.17-3.07a0.722,0.722,0,0,1-.426-0.143c-0.016-.012-0.032-0.026-0.047-0.039l-3.558-3.157a0.706,0.706,0,0,1,.937-1.056l2.388,2.118v-8.269a0.706,0.706,0,1,1,1.411,0v8.269l2.388-2.118a0.706,0.706,0,0,1,.937,1.056l-3.562,3.161h0a0.7,0.7,0,0,1-.423.176h0Zm13.713,0.831h-1.633a0.706,0.706,0,0,1,0-1.412h0.927V432.5H259.635v0.749a0.706,0.706,0,1,1-1.412,0V431.8a0.706,0.706,0,0,1,.706-0.706h18.759a0.707,0.707,0,0,1,.706.706v18.759A0.707,0.707,0,0,1,277.688,451.26Z" transform="translate(-254.406 -431.094)"/>
</svg>
