<svg xmlns="http://www.w3.org/2000/svg" width="24" height="24" viewBox="0 0 24 24"><path class="cls" d="M9.134 23.991a.773.773 0 0 1-.184-.023 12.309 12.309 0 0 1-3.257-1.348.75.75 0 0 1-.21-1.1 2.15 2.15 0 0 0-.172-2.829 2.2 2.2 0 0 0-2.829-.171.758.758 0 0 1-.6.142.747.747 0 0 1-.5-.353 12.264 12.264 0 0 1-1.348-3.257.75.75 0 0 1 .631-.928 2.137 2.137 0 0 0 0-4.243.75.75 0 0 1-.631-.928 12.259 12.259 0 0 1 1.348-3.257.75.75 0 0 1 1.1-.21 2.2 2.2 0 0 0 2.83-.172 2.149 2.149 0 0 0 .171-2.828.75.75 0 0 1 .21-1.1A12.27 12.27 0 0 1 8.95.037a.75.75 0 0 1 .928.631 2.137 2.137 0 0 0 4.243 0 .752.752 0 0 1 .93-.631 12.271 12.271 0 0 1 3.255 1.349.75.75 0 0 1 .21 1.1 2.147 2.147 0 0 0 .173 2.827 2.2 2.2 0 0 0 2.828.173.75.75 0 0 1 1.1.21 12.291 12.291 0 0 1 1.348 3.256.749.749 0 0 1-.631.929 2.137 2.137 0 0 0 0 4.243.75.75 0 0 1 .631.929 12.264 12.264 0 0 1-1.348 3.256.752.752 0 0 1-1.1.211 2.2 2.2 0 0 0-2.828.172 2.15 2.15 0 0 0-.173 2.828.75.75 0 0 1-.21 1.1 12.343 12.343 0 0 1-3.255 1.348.75.75 0 0 1-.93-.631 2.137 2.137 0 0 0-4.243 0 .748.748 0 0 1-.744.654zm-2.019-2.3a10.722 10.722 0 0 0 1.487.615 3.634 3.634 0 0 1 6.8 0 10.761 10.761 0 0 0 1.486-.615 3.653 3.653 0 0 1 .744-4.061 3.7 3.7 0 0 1 4.061-.744 10.661 10.661 0 0 0 .617-1.487 3.634 3.634 0 0 1 0-6.8 10.711 10.711 0 0 0-.617-1.487 3.662 3.662 0 0 1-1.5.321 3.608 3.608 0 0 1-2.566-1.063 3.653 3.653 0 0 1-.744-4.063 10.886 10.886 0 0 0-1.486-.615 3.634 3.634 0 0 1-6.8 0 10.846 10.846 0 0 0-1.487.615 3.649 3.649 0 0 1-.743 4.063 3.605 3.605 0 0 1-2.566 1.063 3.679 3.679 0 0 1-1.5-.32 10.524 10.524 0 0 0-.616 1.486 3.635 3.635 0 0 1 0 6.8 10.586 10.586 0 0 0 .616 1.487 3.677 3.677 0 0 1 1.5-.32 3.6 3.6 0 0 1 2.567 1.063 3.653 3.653 0 0 1 .747 4.061zM12 18.507A6.508 6.508 0 1 1 18.507 12 6.515 6.515 0 0 1 12 18.507zm0-11.515A5.008 5.008 0 1 0 17.007 12 5.014 5.014 0 0 0 12 6.992zm0 1.451A3.557 3.557 0 1 0 15.556 12 3.561 3.561 0 0 0 12 8.443zm0 4.96a1.4 1.4 0 1 1 1.4-1.4A1.4 1.4 0 0 1 12 13.4z"/></svg>