<svg xmlns="http://www.w3.org/2000/svg" width="24" height="24" viewBox="0 0 24 24"><path class="cls" d="M10.875 16.5c-3.1 0-5.625-3.071-5.625-6.845a7.637 7.637 0 0 1 1.592-4.777 5.148 5.148 0 0 1 4.033-2.066c3.1 0 5.625 3.069 5.625 6.843S13.977 16.5 10.875 16.5zm0-12.189c-2.276 0-4.127 2.4-4.127 5.344s1.853 5.344 4.127 5.344S15 12.599 15 9.655s-1.85-5.344-4.125-5.344zM17.287 24H2.099a2.1 2.1 0 0 1-2.1-2.1 6.156 6.156 0 0 1 6.149-6.151.751.751 0 0 1 0 1.5 4.654 4.654 0 0 0-4.649 4.65.6.6 0 0 0 .6.6H19.65a.6.6 0 0 0 .6-.6 4.656 4.656 0 0 0-4.651-4.65.751.751 0 0 1 0-1.5A6.158 6.158 0 0 1 21.75 21.9a2.1 2.1 0 0 1-2.1 2.1h-2.362zm.519-14.693a.783.783 0 0 1-.172-.02.749.749 0 0 1-.559-.9 6.784 6.784 0 0 0 .175-1.543c0-2.946-1.851-5.344-4.125-5.344a3.3 3.3 0 0 0-1.7.479.75.75 0 0 1-.764-1.291A4.851 4.851 0 0 1 13.126 0c3.1 0 5.625 3.071 5.625 6.844a8.3 8.3 0 0 1-.215 1.885.75.75 0 0 1-.73.578zm5.328 10.942a.727.727 0 0 1-.3-.065.75.75 0 0 1-.381-.99.593.593 0 0 0 .051-.244 4.573 4.573 0 0 0-4.5-4.7.75.75 0 0 1 0-1.5 6.074 6.074 0 0 1 6 6.2 2.1 2.1 0 0 1-.18.854.752.752 0 0 1-.69.445z"/></svg>