<svg xmlns="http://www.w3.org/2000/svg" width="23" height="18" viewBox="0 0 23 18">
  <path id="Folder_kopie" data-name="Folder kopie" class="cls" d="M275.023,154.782a0.539,0.539,0,0,1-.541-0.538v-2.425h-8.4a0.538,0.538,0,1,1,0-1.075h8.94a0.539,0.539,0,0,1,.541.538v2.962A0.539,0.539,0,0,1,275.023,154.782Zm-10.883,9.437h-4.925a0.538,0.538,0,1,1,0-1.075h4.925A0.538,0.538,0,1,1,264.14,164.219Zm10.06,3.79-2.211,0H255.676a0.674,0.674,0,0,1-.676-0.672v-16.67a0.674,0.674,0,0,1,.676-0.672h9.575a0.677,0.677,0,0,1,.607.376l1.585,3.206h9.879a0.675,0.675,0,0,1,.677.672v4.587a0.677,0.677,0,0,1-1.353,0v-3.915h-9.624a0.677,0.677,0,0,1-.607-0.376l-1.586-3.206h-8.476v15.327l17.849,0a2.441,2.441,0,0,0,2.445-2.429v-1.363a0.677,0.677,0,0,1,1.353,0v1.363A3.791,3.791,0,0,1,274.2,168.009Z" transform="translate(-255 -150)"/>
</svg>
