<svg xmlns="http://www.w3.org/2000/svg" width="24" height="23.969" viewBox="0 0 24 23.969">
  <path id="Close" class="cls" d="M266.973,503a11.941,11.941,0,0,1-5.865-1.533,0.706,0.706,0,1,1,.693-1.231,10.6,10.6,0,1,0-2.3-1.746,0.706,0.706,0,1,1-1,1A12.019,12.019,0,1,1,266.973,503Zm3.771-7.313a0.7,0.7,0,0,1-.5-0.207l-7.5-7.5a0.706,0.706,0,0,1,1-1l7.5,7.5A0.707,0.707,0,0,1,270.744,495.687Zm-7.5,0a0.707,0.707,0,0,1-.5-1.206l7.5-7.5a0.706,0.706,0,1,1,1,1l-7.5,7.5A0.7,0.7,0,0,1,263.243,495.687Z" transform="translate(-255 -479.031)"/>
</svg>
