<svg xmlns="http://www.w3.org/2000/svg" width="24" height="24" viewBox="0 0 24 24">
  <path class="cls" d="M266.625,162c-3.1,0-5.625-3.071-5.625-6.845a7.637,7.637,0,0,1,1.592-4.777,5.148,5.148,0,0,1,4.033-2.066c3.1,0,5.625,3.069,5.625,6.843S269.727,162,266.625,162Zm0-12.189c-2.276,0-4.127,2.4-4.127,5.344s1.853,5.344,4.127,5.344,4.125-2.4,4.125-5.344S268.9,149.811,266.625,149.811Zm6.412,19.689H257.849a2.1,2.1,0,0,1-2.1-2.1,6.156,6.156,0,0,1,6.149-6.151,0.751,0.751,0,0,1,0,1.5,4.654,4.654,0,0,0-4.649,4.65,0.6,0.6,0,0,0,.6.6H275.4a0.6,0.6,0,0,0,.6-0.6,4.656,4.656,0,0,0-4.651-4.65,0.751,0.751,0,0,1,0-1.5A6.158,6.158,0,0,1,277.5,167.4a2.1,2.1,0,0,1-2.1,2.1h-2.362Zm0.519-14.693a0.783,0.783,0,0,1-.172-0.02,0.749,0.749,0,0,1-.559-0.9,6.784,6.784,0,0,0,.175-1.543c0-2.946-1.851-5.344-4.125-5.344a3.3,3.3,0,0,0-1.7.479,0.75,0.75,0,0,1-.764-1.291,4.851,4.851,0,0,1,2.465-.688c3.1,0,5.625,3.071,5.625,6.844a8.3,8.3,0,0,1-.215,1.885A0.75,0.75,0,0,1,273.556,154.807Zm5.328,10.942a0.727,0.727,0,0,1-.3-0.065,0.75,0.75,0,0,1-.381-0.99,0.593,0.593,0,0,0,.051-0.244,4.573,4.573,0,0,0-4.5-4.7,0.75,0.75,0,0,1,0-1.5,6.074,6.074,0,0,1,6,6.2,2.1,2.1,0,0,1-.18.854A0.752,0.752,0,0,1,278.884,165.749Z" transform="translate(-255.75 -145.5)"/>
</svg>
