<svg xmlns="http://www.w3.org/2000/svg" width="23.125" height="24" viewBox="0 0 23.125 24"><path class="cls-1" d="M.844 14.393a.705.705 0 0 1-.7-.6A11.553 11.553 0 0 1 20.688 4.93V.715a.706.706 0 1 1 1.412 0v6.716a.708.708 0 0 1-.869.687l-5.8-1.375a.706.706 0 0 1 .325-1.374l4.229 1a10.142 10.142 0 0 0-18.448 7.206.7.7 0 0 1-.588.806.68.68 0 0 1-.105.012zm.89 9.619a.706.706 0 0 1-.706-.706V16.59a.706.706 0 0 1 .869-.687l5.8 1.375a.705.705 0 0 1-.325 1.373l-4.233-1a10.141 10.141 0 0 0 18.447-7.2.708.708 0 0 1 1.4-.218 11.553 11.553 0 0 1-20.538 8.868v4.207a.707.707 0 0 1-.714.704z"/></svg>