<svg xmlns="http://www.w3.org/2000/svg" width="23.125" height="24" viewBox="0 0 23.125 24">
  <path id="Refresh" class="cls-1" d="M255.875,394.581a0.705,0.705,0,0,1-.7-0.6,11.553,11.553,0,0,1,20.544-8.863v-4.215a0.706,0.706,0,1,1,1.412,0v6.716a0.708,0.708,0,0,1-.869.687l-5.8-1.375a0.706,0.706,0,0,1,.325-1.374l4.229,1a10.142,10.142,0,0,0-18.448,7.206,0.7,0.7,0,0,1-.588.806A0.68,0.68,0,0,1,255.875,394.581Zm0.89,9.619a0.706,0.706,0,0,1-.706-0.706v-6.716a0.706,0.706,0,0,1,.869-0.687l5.8,1.375a0.705,0.705,0,0,1-.325,1.373h0l-4.233-1a10.141,10.141,0,0,0,18.447-7.2,0.706,0.706,0,0,1,1.4-.218,11.553,11.553,0,0,1-20.538,8.868v4.207A0.707,0.707,0,0,1,256.765,404.2Z" transform="translate(-255.031 -380.188)"/>
</svg>
