<svg xmlns="http://www.w3.org/2000/svg" width="24" height="24" viewBox="0 0 24 24"><path class="cls-1" d="M12.007 24.007a12 12 0 1 1 12-12 12.01 12.01 0 0 1-12 12zm0-22.35a10.314 10.314 0 1 0 2.347.267 10.365 10.365 0 0 0-2.347-.267zm0 13.291a2.938 2.938 0 1 1 2.077-.86 2.917 2.917 0 0 1-2.077.86zm0-4.561a1.624 1.624 0 0 0-1.148 2.771 1.661 1.661 0 0 0 2.3 0 1.623 1.623 0 0 0-1.152-2.771zm-2.212 1.725a.666.666 0 0 1-.213-.036.657.657 0 0 1-.408-.835l2.212-6.438a.657.657 0 0 1 1.243 0l2.208 6.423a.657.657 0 1 1-1.243.428l-1.587-4.616-1.59 4.63a.659.659 0 0 1-.617.444zm2.841 2.747a.657.657 0 0 1-.213-1.279l4.615-1.587-4.629-1.59a.657.657 0 1 1 .427-1.243l6.438 2.212a.657.657 0 0 1 0 1.242l-6.424 2.209a.668.668 0 0 1-.214.036z"/></svg>