<svg xmlns="http://www.w3.org/2000/svg" width="24" height="24" viewBox="0 0 24 24">
  <path id="Time" class="cls-1" d="M267.007,358.007a12,12,0,1,1,12-12A12.01,12.01,0,0,1,267.007,358.007Zm0-22.35a10.314,10.314,0,1,0,2.347.267A10.365,10.365,0,0,0,267.007,335.657Zm0,13.291a2.938,2.938,0,1,1,2.077-.86A2.917,2.917,0,0,1,267.007,348.948Zm0-4.561a1.624,1.624,0,0,0-1.148,2.771,1.661,1.661,0,0,0,2.3,0A1.623,1.623,0,0,0,267.007,344.387Zm-2.212,1.725a0.666,0.666,0,0,1-.213-0.036,0.657,0.657,0,0,1-.408-0.835l2.212-6.438a0.657,0.657,0,0,1,1.243,0l2.208,6.423a0.657,0.657,0,1,1-1.243.428l-1.587-4.616-1.59,4.63A0.659,0.659,0,0,1,264.8,346.112Zm2.841,2.747a0.657,0.657,0,0,1-.213-1.279l4.615-1.587-4.629-1.59a0.657,0.657,0,1,1,.427-1.243l6.438,2.212a0.657,0.657,0,0,1,0,1.242l-6.424,2.209A0.668,0.668,0,0,1,267.636,348.859Z" transform="translate(-255 -334)"/>
</svg>
