<svg xmlns="http://www.w3.org/2000/svg" width="23" height="18" viewBox="0 0 23 18"><path data-name="Folder kopie" class="cls" d="M20.023 4.782a.539.539 0 0 1-.541-.538V1.819h-8.4a.538.538 0 1 1 0-1.075h8.94a.539.539 0 0 1 .541.538v2.962a.539.539 0 0 1-.54.538zM9.14 14.219H4.215a.538.538 0 1 1 0-1.075H9.14a.538.538 0 1 1 0 1.075zm10.06 3.79H.676A.674.674 0 0 1 0 17.337V.667a.674.674 0 0 1 .676-.672h9.575a.677.677 0 0 1 .607.376l1.585 3.206h9.879a.675.675 0 0 1 .677.672v4.587a.677.677 0 0 1-1.353 0V4.921h-9.624a.677.677 0 0 1-.607-.376L9.829 1.339H1.353v15.327h17.849a2.441 2.441 0 0 0 2.445-2.429v-1.363a.677.677 0 0 1 1.353 0v1.363a3.791 3.791 0 0 1-3.8 3.772z"/></svg>