<svg xmlns="http://www.w3.org/2000/svg" width="24" height="23.812" viewBox="0 0 24 23.812"><path class="cls" d="M19.453 23.817H.694a.706.706 0 0 1-.706-.706V4.351a.705.705 0 0 1 .706-.7h18.759a.706.706 0 0 1 .706.7v18.76a.707.707 0 0 1-.706.706zM1.399 22.406h17.348V5.057H1.399v17.349zm8.17-3.07a.722.722 0 0 1-.426-.143l-.047-.039-3.558-3.157a.706.706 0 0 1 .937-1.056l2.388 2.118V8.79a.706.706 0 1 1 1.411 0v8.269l2.388-2.118a.706.706 0 0 1 .937 1.056l-3.562 3.161a.7.7 0 0 1-.423.176zm13.713.831h-1.633a.706.706 0 0 1 0-1.412h.927V1.406H5.229v.749a.706.706 0 1 1-1.412 0V.706A.706.706 0 0 1 4.523 0h18.759a.707.707 0 0 1 .706.706v18.759a.707.707 0 0 1-.706.701z"/></svg>