<svg xmlns="http://www.w3.org/2000/svg" width="21.438" height="21.594" viewBox="0 0 21.438 21.594"><defs><style>.cls-1{fill:#6b6e77;fill-rule:evenodd}</style></defs><path id="Check" class="cls-1" d="M345.254 142.145a9.456 9.456 0 1 1-9.386 9.445 9.426 9.426 0 0 1 9.386-9.445m0-1.349a10.795 10.795 0 1 0 10.727 10.794 10.761 10.761 0 0 0-10.727-10.79zm-1.528 14.658a.668.668 0 0 1-.949 0l-3.318-3.338a.677.677 0 0 1 0-.954.666.666 0 0 1 .948 0l3.319 3.339a.678.678 0 0 1 0 .953zm-.945-.021a.668.668 0 0 0 .948 0l6.755-6.838a.677.677 0 0 0 0-.954.668.668 0 0 0-.948 0l-6.755 6.839a.676.676 0 0 0 0 .953z" transform="translate(-334.531 -140.781)"/></svg>