<svg xmlns="http://www.w3.org/2000/svg" width="10.563" height="23.344" viewBox="0 0 10.563 23.344">
<defs>
    <style>
      .cls-1 {
        fill: #23839e;
        fill-rule: evenodd;
      }
    </style>
  </defs>
  <path id="link" class="cls-1" d="M686.005,159.776a3.622,3.622,0,0,1-.573.75,3.543,3.543,0,0,1-2.529,1.055h-0.327a3.593,3.593,0,0,1-3.577-3.6v-8.555a3.593,3.593,0,0,1,3.577-3.6H682.9a3.592,3.592,0,0,1,3.577,3.6v0.756a0.669,0.669,0,1,1-1.337,0v-0.756a2.248,2.248,0,0,0-.656-1.595,2.214,2.214,0,0,0-1.584-.66h-0.327a2.251,2.251,0,0,0-2.24,2.256v8.555a2.25,2.25,0,0,0,2.24,2.255H682.9a2.215,2.215,0,0,0,1.584-.661,2.244,2.244,0,0,0,.656-1.594v-1.911a0.669,0.669,0,1,1,1.337,0v1.911A3.608,3.608,0,0,1,686.005,159.776Zm3.07-7.569a3.575,3.575,0,0,1-3.1,1.806h-0.327a3.593,3.593,0,0,1-3.577-3.6v-0.757a0.669,0.669,0,1,1,1.337,0v0.757a2.248,2.248,0,0,0,.656,1.595,2.216,2.216,0,0,0,1.584.66h0.327a2.25,2.25,0,0,0,2.24-2.255v-8.555a2.25,2.25,0,0,0-2.24-2.255h-0.327a2.213,2.213,0,0,0-1.584.661,2.244,2.244,0,0,0-.656,1.594v1.911a0.669,0.669,0,1,1-1.337,0v-1.911a3.589,3.589,0,0,1,1.048-2.546,3.541,3.541,0,0,1,2.529-1.055h0.327a3.543,3.543,0,0,1,2.529,1.055,3.591,3.591,0,0,1,1.048,2.546v8.555A3.6,3.6,0,0,1,689.075,152.207Z" transform="translate(-679 -138.25)"/>
</svg>
