<svg xmlns="http://www.w3.org/2000/svg" width="29.97" height="21.75" viewBox="0 0 29.97 21.75">
<defs>
    <style>
      .cls-1 {
        fill: #fff;
        fill-rule: evenodd;
      }
    </style>
  </defs>
  <path id="Search" class="cls-1" d="M1281.62,223.388a0.881,0.881,0,0,1-.44-0.118l-11.83-6.83a0.881,0.881,0,0,1-.33-1.2,7.9,7.9,0,1,0-13.69-7.908,7.91,7.91,0,0,0,2.89,10.8,7.94,7.94,0,0,0,7.87.023,0.884,0.884,0,1,1,.88,1.533,9.722,9.722,0,0,1-9.63-.027,9.671,9.671,0,1,1,13.62-4.324l11.1,6.408A0.884,0.884,0,0,1,1281.62,223.388Z" transform="translate(-1252.5 -201.625)"/>
</svg>
