<svg xmlns="http://www.w3.org/2000/svg" width="17" height="14.75" viewBox="0 0 17 14.75"><defs><style>.cls-1{fill:#fff;fill-rule:evenodd}</style></defs><path id="Users" class="cls-1" d="M1417.16 43.419h-.6a3.184 3.184 0 0 1-3.18-3.176V36.8a3.184 3.184 0 0 1 3.18-3.175h.6a3.184 3.184 0 0 1 3.18 3.175v3.447a3.184 3.184 0 0 1-3.18 3.172zm-.6-8.79a2.169 2.169 0 0 0-2.17 2.167v3.447a2.169 2.169 0 0 0 2.17 2.168h.6a2.169 2.169 0 0 0 2.17-2.168V36.8a2.169 2.169 0 0 0-2.17-2.167h-.6zm6.94 13.751h-13.28a.5.5 0 0 1-.5-.5v-1.187c-.05-1.3 3.21-2.285 5.41-2.8v-.914a.508.508 0 0 1 .51-.5.5.5 0 0 1 .5.5v1.31a.5.5 0 0 1-.39.492c-2.5.559-4.83 1.451-5.02 1.916v.673h12.77a.5.5 0 0 1 0 1.009zm0 0a.508.508 0 0 1-.51-.5V46.7c-.19-.467-2.53-1.358-5.02-1.916a.5.5 0 0 1 .22-.983c2.19.49 5.86 1.52 5.81 2.912v1.165a.506.506 0 0 1-.5.501zm-10.51-5.285h-.49a2.577 2.577 0 0 1-2.57-2.57v-2.76a2.578 2.578 0 0 1 2.57-2.57h.49a.432.432 0 0 1 0 .864h-.49a1.7 1.7 0 0 0-1.7 1.706v2.759a1.7 1.7 0 0 0 1.7 1.705h.49a.432.432 0 0 1 0 .865zm-5.56 5.241a.429.429 0 0 1-.43-.436v-2.215c-.03-1.008 2.26-1.78 4.34-2.267v-.7a.43.43 0 1 1 .86 0v1.048a.432.432 0 0 1-.34.422c-1.96.439-3.81 1.142-4 1.512v2.2a.429.429 0 0 1-.43.435z" transform="translate(-1407 -33.625)"/></svg>