<svg xmlns="http://www.w3.org/2000/svg" width="17" height="14.75" viewBox="0 0 17 14.75">
  <metadata><?xpacket begin="﻿" id="W5M0MpCehiHzreSzNTczkc9d"?>
<x:xmpmeta xmlns:x="adobe:ns:meta/" x:xmptk="Adobe XMP Core 5.6-c142 79.160924, 2017/07/13-01:06:39        ">
   <rdf:RDF xmlns:rdf="http://www.w3.org/1999/02/22-rdf-syntax-ns#">
      <rdf:Description rdf:about=""/>
   </rdf:RDF>
</x:xmpmeta>
                                                                                                    
                                                                                                    
                                                                                                    
                                                                                                    
                                                                                                    
                                                                                                    
                                                                                                    
                                                                                                    
                                                                                                    
                                                                                                    
                                                                                                    
                                                                                                    
                                                                                                    
                                                                                                    
                                                                                                    
                                                                                                    
                                                                                                    
                                                                                                    
                                                                                                    
                                                                                                    
                           
<?xpacket end="w"?></metadata>
<defs>
    <style>
      .cls-1 {
        fill: #fff;
        fill-rule: evenodd;
      }
    </style>
  </defs>
  <path id="Users" class="cls-1" d="M1417.16,43.419h-0.6a3.184,3.184,0,0,1-3.18-3.176V36.8a3.184,3.184,0,0,1,3.18-3.175h0.6a3.184,3.184,0,0,1,3.18,3.175v3.447A3.184,3.184,0,0,1,1417.16,43.419Zm-0.6-8.79a2.169,2.169,0,0,0-2.17,2.167v3.447a2.169,2.169,0,0,0,2.17,2.168h0.6a2.169,2.169,0,0,0,2.17-2.168V36.8a2.169,2.169,0,0,0-2.17-2.167h-0.6Zm6.94,13.751h-13.28a0.5,0.5,0,0,1-.5-0.5V46.693c-0.05-1.3,3.21-2.285,5.41-2.8V42.979a0.508,0.508,0,0,1,.51-0.5,0.5,0.5,0,0,1,.5.5v1.31a0.5,0.5,0,0,1-.39.492c-2.5.559-4.83,1.451-5.02,1.916v0.673h12.77A0.5,0.5,0,0,1,1423.5,48.379Zm0,0a0.508,0.508,0,0,1-.51-0.5V46.7c-0.19-.467-2.53-1.358-5.02-1.916a0.5,0.5,0,0,1,.22-0.983c2.19,0.49,5.86,1.52,5.81,2.912v1.165A0.506,0.506,0,0,1,1423.5,48.379Zm-10.51-5.285h-0.49a2.577,2.577,0,0,1-2.57-2.57V37.765a2.578,2.578,0,0,1,2.57-2.57h0.49a0.432,0.432,0,0,1,0,.864h-0.49a1.7,1.7,0,0,0-1.7,1.706v2.759a1.7,1.7,0,0,0,1.7,1.705h0.49A0.432,0.432,0,0,1,1412.99,43.094Zm-5.56,5.241A0.429,0.429,0,0,1,1407,47.9V45.685c-0.03-1.008,2.26-1.78,4.34-2.267v-0.7a0.43,0.43,0,1,1,.86,0v1.048a0.432,0.432,0,0,1-.34.422c-1.96.439-3.81,1.142-4,1.512V47.9A0.429,0.429,0,0,1,1407.43,48.335Z" transform="translate(-1407 -33.625)"/>
</svg>
